<?xml version="1.0" encoding="UTF-8" standalone="no"?><!DOCTYPE svg PUBLIC "-//W3C//DTD SVG 1.1//EN" "http://www.w3.org/Graphics/SVG/1.1/DTD/svg11.dtd"><svg width="100%" height="100%" viewBox="0 0 682 613" version="1.1" xmlns="http://www.w3.org/2000/svg" xmlns:xlink="http://www.w3.org/1999/xlink" xml:space="preserve" xmlns:serif="http://www.serif.com/" style="fill-rule:evenodd;clip-rule:evenodd;stroke-linejoin:round;stroke-miterlimit:2;"><path id="logo-skeletonOnly-bone" d="M162.937,500.645l-46.585,60.835l6.728,49.998c0,-0 38.989,-65.075 39.857,-110.833Zm-161.483,-8.381l103.233,64.91l6.494,44.712c-0,-0 -80.014,-56.386 -109.727,-109.622Zm266.276,33.206l-106.673,-120.602l-41.403,13.407c0,0 56.763,69.577 148.076,107.195Zm-252.598,-133.697l110.975,110.975l-18.849,20.671c0,0 -70.938,-60.845 -92.126,-131.646Zm414.691,34.011c0,-0 -11.313,46.979 -151.572,95.81l-17.715,-26.715l169.287,-69.095Zm-180.033,-101.542c-0,0 -3.663,9.118 -34.491,12.756c-0,-0 9.752,13.021 -3.336,21.563c-13.087,8.541 -48.03,37.197 -48.03,37.197l19.117,20.994l17.605,-0.273l22.49,-18.355l84.819,28.676l35.562,-2.768l33.229,-23.821l-4.567,-19.369l-105.646,-42.053l-16.752,-14.547Zm-174.769,-31.811l-35.315,5.978l75.817,112.492l37.52,-15.696l-78.022,-102.774Zm182.703,66.967l-21.408,20.283l90.527,31.198l27.507,-14.732l-96.626,-36.749Zm56.287,-59.597l-24.063,30.119l152.004,60.815c0,0 -26.62,-55.78 -127.941,-90.934Zm-118.684,32.523l34.546,-11.705l-68.515,-88.637l-20.072,5.013l54.041,95.329Zm104.012,-94.613l-34.275,69.239l12.562,12.252l47.858,-73.197c-0,0 -13.723,-1.928 -26.145,-8.294Zm-238.758,-152.482l14.959,199.129l-38.982,3.773c-0,0 3.089,-150.992 24.023,-202.902Zm103.619,15.733l-5.91,119.58l-18.296,7.68c-0,0 2.518,-74.331 24.206,-127.26Zm158.959,-46.55l-50.318,40.772l34.257,113.73c-0,0 220.777,79.195 344.306,-89.482c0,-0 -102.053,64.312 -200.36,37.304c0,-0 155.957,-7.849 228.45,-155.675c0,0 -179.046,107.284 -281.583,92.162l-74.752,-38.811Zm9.855,69.563c7.041,-2.359 16.933,8.193 22.076,23.549c5.142,15.355 3.6,29.736 -3.441,32.095c-7.042,2.358 -16.934,-8.194 -22.076,-23.549c-5.143,-15.356 -3.601,-29.737 3.441,-32.095Z" style="fill:#f8f0e5;"/></svg>